<?xml version="1.0" encoding="UTF-8" standalone="no"?>
<!-- Created with Inkscape (http://www.inkscape.org/) -->

<svg
   width="2103.9666mm"
   height="1403.35mm"
   viewBox="0 0 2103.9666 1403.35"
   version="1.1"
   id="svg1"
   xml:space="preserve"
   inkscape:version="1.4.4 (dcaf3e7d9e, 2026-05-05)"
   sodipodi:docname="burns.svg"
   xmlns:inkscape="http://www.inkscape.org/namespaces/inkscape"
   xmlns:sodipodi="http://sodipodi.sourceforge.net/DTD/sodipodi-0.dtd"
   xmlns="http://www.w3.org/2000/svg"
   xmlns:svg="http://www.w3.org/2000/svg"><sodipodi:namedview
     id="namedview1"
     pagecolor="#505050"
     bordercolor="#eeeeee"
     borderopacity="1"
     inkscape:showpageshadow="0"
     inkscape:pageopacity="0"
     inkscape:pagecheckerboard="0"
     inkscape:deskcolor="#505050"
     inkscape:document-units="mm"
     inkscape:zoom="0.14946843"
     inkscape:cx="1916.7928"
     inkscape:cy="1649.1777"
     inkscape:window-width="1920"
     inkscape:window-height="1011"
     inkscape:window-x="0"
     inkscape:window-y="0"
     inkscape:window-maximized="1"
     inkscape:current-layer="layer1" /><defs
     id="defs1" /><g
     inkscape:label="Layer 1"
     inkscape:groupmode="layer"
     id="layer1"
     transform="translate(947.20825,553.24371)"><path
       id="path1"
       style="fill:none;stroke:#261204;stroke-width:0.264446;stroke-linejoin:round;stroke-dasharray:none;stroke-opacity:1"
       d="m -39.460638,-253.96112 c -0.437394,0.003 -0.964316,0.0782 -1.855403,0.19707 -0.543347,0.12977 -0.391038,0.75745 0.152308,0.73583 0.543346,-0.0216 1.716755,0.0864 2.651309,0.0648 0.934556,-0.0216 1.434194,-0.41087 0.369236,-0.75694 -0.532481,-0.17306 -0.880058,-0.2435 -1.31745,-0.2408 z m -20.573544,84.40236 c -0.655773,0.0177 -1.335051,0.16443 -2.001047,0.47186 -0.887996,0.4099 -0.170302,0.6982 0.177437,0.78473 0.347743,0.0865 2.348662,-0.31321 2.915415,-0.31338 0.26537,-8e-5 2.524854,-0.0232 2.422075,-0.26089 -0.04255,-0.0984 -0.503682,-0.34041 -1.146163,-0.47289 -0.668922,-0.13794 -1.523017,-0.16452 -1.721044,-0.18474 -0.211906,-0.0216 -0.428083,-0.0306 -0.646673,-0.0247 z m -19.713535,1.98779 c -0.35646,0.006 -0.68229,0.07 -0.633853,0.35351 0.06459,0.37801 0.148916,0.46525 0.514877,0.60566 0.57047,0.2376 0.602305,0.31245 1.065138,0.56088 0.462834,0.24841 1.366973,0.21638 0.957959,-0.23722 -0.409015,-0.45361 -1.098202,-1.25299 -1.550272,-1.2746 -0.113018,-0.005 -0.23503,-0.01 -0.353849,-0.008 z m 48.353314,11.39419 c -0.01427,-7.4e-4 -0.02867,-4.3e-4 -0.04308,5.3e-4 -0.461045,0.0306 -0.722344,0.0304 -1.460014,0.0304 -0.353466,0.0919 -0.430393,0.65762 -0.07693,0.71886 0.353466,0.0611 0.783967,-0.0309 1.598479,0.0304 0.789055,0.0593 0.424266,-0.7568 -0.01845,-0.78008 z m -50.158578,20.87515 c -0.537885,0.0459 -1.383126,0.25986 -1.41386,0.81044 -0.03073,0.55059 1.598492,0.87166 1.613863,1.36106 0.01536,0.4894 -1.014356,0.84118 -0.998984,1.37649 0.01537,0.53529 1.213877,0.38212 1.705657,0.36688 0.491781,-0.0154 0.421513,1.07193 0.513725,1.46956 0.04088,0.17629 -0.784156,1.20138 -0.954851,1.84044 -0.214337,0.80245 0.661127,1.49212 0.926335,1.55171 0.476416,0.10706 2.586145,-1.52833 3.541501,-2.01663 1.522792,-0.77835 1.144243,-1.49525 0.464073,-1.48858 -0.3684,0.004 -1.420022,0.26002 -1.696649,-0.10702 -0.276628,-0.36707 -0.464047,-0.59446 -0.387206,-0.86976 0.07684,-0.27529 0.52566,-0.91413 0.571765,-1.34235 0.04611,-0.42824 -0.949896,-0.39749 -1.211154,-0.64219 -0.261259,-0.24471 -0.420908,-0.79627 0.209186,-1.10215 0.630094,-0.30589 -0.332264,-0.91768 -0.962354,-0.97891 -0.399571,-0.0919 -1.383161,-0.27491 -1.921047,-0.22899 z m -31.906859,2.7304 c -0.352,-0.0228 -0.99596,0.0622 -1.76207,0.23258 -0.44552,0.21628 -0.55462,0.54042 -0.41336,1.05951 0.14128,0.5191 0.38933,2.28184 0.86748,2.32515 0.489,0.0325 0.75199,-1.42741 0.7628,-1.81675 0.0109,-0.3893 0.43482,-0.97341 0.72822,-1.1897 0.2934,-0.21629 0.24986,-0.42134 0.0651,-0.55111 -0.0462,-0.0325 -0.13087,-0.0521 -0.24819,-0.0596 z m 96.627639,4.27251 c -0.354429,-0.01 -0.846841,0.12193 -1.711299,0.20222 -0.53789,0.29057 -0.230588,0.61126 -0.06153,0.82537 0.169051,0.21412 0.6455,0.0464 0.983599,0.21458 0.338101,0.16823 0.291982,0.42806 0.461032,0.64218 0.16905,0.21411 1.49044,-0.27528 2.120534,-0.33652 0.630094,-0.0611 0.876071,-0.41288 0.553338,-0.5964 -0.322731,-0.18348 -1.275282,-0.10729 -1.644119,-0.24494 -0.368831,-0.13763 9.7e-5,-0.47393 -0.384106,-0.64217 -0.09606,-0.0421 -0.199295,-0.0609 -0.317439,-0.0643 z m -97.220999,0.17494 c -0.23225,-0.009 -0.4904,0.0654 -0.80257,0.0654 -0.53016,0.1147 -0.18438,0.54311 0.0308,0.62726 0.21515,0.084 0.61483,0.0148 1.03746,0.0685 0.42263,0.0536 0.46836,-0.35138 0.13026,-0.61902 -0.12679,-0.10037 -0.25657,-0.13641 -0.39592,-0.14203 z m 38.087059,0.35145 c -0.278296,-7.8e-4 -0.438473,0.12157 -0.819494,0.29999 -3.15245,2.60881 0.47183,0.85779 1.184626,0.45438 0.377462,-0.21361 0.78237,-0.48665 0.119488,-0.67049 -0.20715,-0.0575 -0.358123,-0.0835 -0.48462,-0.0839 z m -55.023619,20.20936 c -0.54336,0.15139 -0.39147,0.67042 -0.0872,0.63806 0.30425,-0.0324 1.20606,0.0107 1.67333,0.0541 0.46729,0.0433 0.72831,-0.35649 0.26103,-0.50787 -0.46728,-0.15148 -0.96698,-0.15185 -1.84718,-0.18421 z m 72.730981,1.09604 c -0.153922,-2.4e-4 -0.296025,0.0228 -0.411287,0.0726 -0.384203,0.67293 -1.198357,2.52319 -1.09078,3.04319 0.107577,0.51998 0.87599,1.28508 0.952831,0.81097 0.07684,-0.47413 0.215125,-2.04943 0.922059,-2.47768 0.706935,-0.42822 1.275529,-0.48977 0.922061,-0.918 -0.265101,-0.32117 -0.83312,-0.53032 -1.294884,-0.53103 z m -71.948941,1.15367 c -0.98889,-0.0324 -2.41245,0.1948 -3.14055,0.48679 -0.97801,0.47584 -0.27159,1.03804 0.39129,0.84338 0.66289,-0.19466 1.73855,-0.24901 2.76003,-0.3247 0.56088,-0.0416 2.5817,-0.0713 2.52025,-0.32898 -0.0504,-0.21173 -2.08512,-0.67649 -2.53107,-0.67649 z m 36.30755,11.12662 c -0.287803,-0.01014 -0.601164,0.05275 -1.000524,0.206858 -0.978023,1.351812 0.738887,0.562604 1.206167,0.3355 0.467274,-0.227105 0.445373,-0.432699 0.0759,-0.508396 -0.09237,-0.01892 -0.185608,-0.03058 -0.281541,-0.03397 z m 41.931712,0.534641 c -0.555491,0.03222 -1.042872,0.153586 -1.010268,0.49965 0.095,0.527572 0.351601,0.861649 0.357952,1.348696 0.0085,0.661893 -0.22606,1.412172 0.08001,1.513875 0.06093,0.04897 0.843168,0.05851 0.885651,0.75951 0.04367,0.720573 -0.307167,2.052234 0.183592,2.252802 0.815829,0.33342 1.969009,-2.979363 2.004635,-3.367882 0.03481,-0.379551 -0.573479,-0.861256 -0.649236,-1.200501 -0.173872,-0.778641 0.348055,-1.489468 -0.434365,-1.770646 -0.239072,-0.01082 -0.862474,-0.06773 -1.417962,-0.03552 z m -5.905325,1.303933 c -0.71722,0.108145 -0.760439,0.778591 0.08718,0.735327 0.847618,-0.04326 1.780355,0.651917 2.434384,0.843384 1.445224,0.423089 2.332891,-0.554929 0.71693,-1.211306 -0.703025,-0.285562 -2.151802,-0.410671 -3.238494,-0.367405 z m 82.278927,1.30238 c -0.370715,0.0014 -0.657149,0.01756 -0.743596,0.02522 -0.172899,0.01529 -0.484021,0.963446 0.06923,0.871687 0.553252,-0.09176 2.074812,0.122381 2.474384,0.168266 0.399577,0.04589 0.296842,-0.898664 -0.550775,-1.001875 -0.423807,-0.05161 -0.878528,-0.06472 -1.249245,-0.06329 z m -37.515626,1.928234 c -0.395772,0.183286 -0.989602,0.534493 -0.639496,0.809423 0.350105,0.27493 1.202683,0.488656 1.644121,0.519207 0.441438,0.03055 0.943345,3.98e-4 1.73489,-0.106519 0.7915449,-0.106917 0.4874276,-0.763641 0.03077,-1.053846 -0.22833,-0.1451 -0.841158,-0.208891 -1.271296,-0.238758 -0.499014,-0.03465 -1.11844,0.0093 -1.498989,0.07049 z m 38.640768,-0.09224 c -0.582243,0.03246 -1.194852,0.131927 -1.575402,0.246481 -0.654546,0.259654 -0.852284,1.022925 -0.273849,1.114566 0.578435,0.09163 1.156958,-0.152315 2.070278,-0.152315 0.913319,0 1.917699,0.198111 2.420024,0.198111 0.502323,0 0.502276,-0.488303 0.09127,-0.534128 -0.410992,-0.04582 -0.821951,-0.412868 -1.339499,-0.718344 -0.258775,-0.152739 -0.810594,-0.186828 -1.392834,-0.154371 z m 7.456487,1.974418 c -0.493704,0.0019 -0.98945,0.02499 -1.181553,0.05557 -0.384204,0.06119 -0.353269,0.810539 0.184618,0.764654 0.537885,-0.04588 1.413897,0.290362 1.921045,0.305656 0.50715,0.01529 0.906738,-0.07636 0.968215,-0.428125 0.06146,-0.351762 -0.353736,-0.520206 -0.722571,-0.627263 -0.184419,-0.05353 -0.676052,-0.07241 -1.169754,-0.07049 z m -82.61682,2.197874 c -0.619421,-0.02162 -0.836874,0.992983 -0.402197,1.014611 0.434676,0.02162 2.410488,0.697167 2.932101,0.805313 0.521612,0.108144 1.196157,-0.358357 0.761478,-0.920706 -0.434676,-0.562354 -2.367692,-0.704556 -3.291382,-0.899218 z m -14.534435,0.228851 c -0.50715,-0.04588 -2.135938,0.0305 -2.627718,0.0458 -0.491782,0.01529 -0.407182,0.91771 0.07693,0.887124 0.484099,-0.03058 2.212746,-7.6e-5 2.59695,0.0458 0.384205,0.04588 0.460996,-0.932837 -0.04616,-0.97872 z m 89.556304,1.396554 c -0.140327,7.16e-4 -0.298746,0.0083 -0.492826,0.02367 -0.532769,0.106918 -0.517637,0.549536 -0.15231,0.595362 0.365328,0.04582 1.247974,0.152874 1.704633,0.06124 0.45666,-0.09164 0.867743,-0.381738 0.15231,-0.519204 -0.536575,-0.103098 -0.790823,-0.163211 -1.211807,-0.161061 z m -38.002955,0.40394 c -0.493944,-0.01391 -1.116658,0.146439 -1.318474,0.227442 -0.279851,0.167403 -0.307038,0.728717 -0.03795,0.879921 0.269089,0.151199 1.388611,0.01101 1.641554,-0.08079 0.252945,-0.0918 0.607963,-0.73467 0.145131,-0.945273 -0.11571,-0.05265 -0.265612,-0.07667 -0.430262,-0.0813 z m -38.829115,0.491417 c -0.370816,0.0051 -0.664967,0.488176 -0.741033,0.932921 -0.08693,0.508281 3.20658,2.550546 3.619523,2.79928 0.03726,-0.01016 0.767897,0.354513 1.384631,0.260374 0.351633,-0.05368 0.926557,-0.181402 0.768213,-0.60977 -0.16077,-0.434929 -1.454864,-0.399219 -1.686684,-0.504281 -0.58848,-0.266705 -0.708706,-1.405222 -0.798984,-1.519536 -0.3883,-0.491675 -1.306762,-0.908408 -2.382587,-1.330172 -0.05569,-0.02027 -0.110106,-0.02955 -0.163079,-0.02882 z m -10.339081,0.761569 c -0.4336,0.0103 -0.861047,0.06773 -1.150781,0.217663 -0.309159,0.159989 -1.715842,0.694912 -1.60617,0.966885 0.09589,0.23779 1.673203,0.223603 1.916942,0.252142 0.522518,0.06119 1.693305,-0.167842 2.123612,-0.397252 0.20105,-0.107183 2.30851,0.406729 2.447205,-0.09364 0.1362,-0.491375 -2.206379,-0.840205 -2.542078,-0.880952 -0.315047,-0.03824 -0.755128,-0.07513 -1.18873,-0.06483 z m -55.931331,2.353145 c -0.39121,0.04326 -0.42367,0.0219 -0.47796,0.313889 -0.0543,0.29199 0.56471,0.940909 1.01026,1.254528 0.44555,0.31362 1.0543,2.324926 1.3477,2.876467 0.29341,0.551537 1.04334,-0.02182 0.90209,-0.411145 -0.14128,-0.389322 -0.31514,-1.427149 -0.28258,-1.784026 0.0326,-0.356878 0.33694,-1.352012 -0.0651,-1.719705 -0.40209,-0.367691 -1.56502,-0.486743 -2.43437,-0.530008 z m 2.81439,5.439554 c -0.57597,0.259547 -0.33683,0.94107 -0.0651,1.049216 0.27166,0.108143 0.61981,-0.302883 0.64154,-0.562431 0.0217,-0.259547 -0.14174,-0.432716 -0.57641,-0.486785 z m 98.334328,8.7426 c -0.55582,-0.01769 -1.206534,0.09039 -1.605144,0.195537 -0.507153,0.191176 -0.299587,0.642401 0.08462,0.665343 0.384204,0.02294 1.47541,0.0227 1.959507,0.08388 0.484093,0.06119 0.891256,-0.405104 0.384107,-0.74922 -0.190181,-0.129041 -0.489594,-0.184919 -0.823086,-0.195537 z m 60.025692,3.186211 c -0.706933,0.107058 -1.322082,0.351972 -1.337451,0.627265 -0.01537,0.275292 0.737958,0.321094 0.737958,0.321094 1.045034,0 2.833951,0.270241 3.073481,0.333835 0.879788,0.233588 1.39051,-0.756329 0.261426,-1.000317 -0.304435,-0.0658 -0.982345,-0.208214 -1.481012,-0.256176 -0.416313,-0.04004 -1.077668,-0.05244 -1.254402,-0.0257 z m -1.275823,1.612634 c -0.188255,0.02676 -0.576498,0.558429 -0.176925,0.680781 0.399571,0.122352 1.56761,0.122326 1.951815,0.107031 0.384203,-0.01529 1.841826,0.332876 1.918676,-0.04948 0.07684,-0.382351 -1.634827,-0.774461 -2.181757,-0.783624 -0.546929,-0.0091 -1.323549,0.01851 -1.511809,0.04528 z m -60.028856,0.107096 c -0.325368,-0.0129 -0.685021,0.107146 -1.130269,0.141508 -0.182671,0.168008 -0.532395,0.427711 -0.06051,0.580438 0.471886,0.152755 1.004385,0.07638 1.46104,0 0.456655,-0.07635 0.456637,-0.488586 0.04565,-0.656595 -0.10275,-0.04201 -0.207444,-0.06106 -0.3159,-0.06535 z m -32.898286,11.052006 c -1.291642,0.3049 -1.175794,0.952365 -0.543083,0.887123 0.389161,-0.04013 2.446304,0.06479 2.946185,0.129673 0.499877,0.06488 0.608597,-0.670901 0.108718,-0.800675 -0.499879,-0.129773 -2.353147,-0.253581 -2.51182,-0.216121 z m 0.296926,5.766824 c -0.433235,0 -0.901755,0.05924 -1.289244,0.178041 -0.409016,0.237605 -0.753566,1.058459 -0.215386,1.015252 0.538178,-0.04321 1.679417,0 2.475922,0 0.796505,0 0.602817,-0.777647 0.107694,-1.015252 -0.247564,-0.118803 -0.645754,-0.178041 -1.078986,-0.178041 z m 62.736236,6.869471 c -0.353178,-0.02162 -0.77719,0.01638 -1.119499,0.113719 -0.684618,0.194665 -1.4012055,0.519438 -1.2707822,0.87632 0.1303972,0.356879 1.0971452,0.345357 1.5318102,0.248025 0.434664,-0.09734 1.673904,-0.713477 1.554375,-0.994671 -0.05977,-0.140584 -0.342728,-0.221764 -0.695904,-0.243393 z m -117.852697,11.890841 c -0.8911,0.04327 -1.41304,0.616197 -1.21744,0.951446 0.19558,0.335248 1.43486,1.492733 1.60872,2.20649 0.17388,0.713757 0.58664,3.092998 0.93437,3.222773 0.34775,0.129773 1.80406,0.259422 1.41285,-0.497592 -0.39123,-0.757013 -1.04321,-1.600898 -1.08669,-2.184879 -0.0435,-0.583982 0.80402,-1.600515 0.58668,-2.011466 -0.21733,-0.410951 -1.34741,-1.73003 -2.23849,-1.686772 z m 15.541696,0.348879 c -0.0917,3.6e-4 -0.17328,0.0078 -0.240515,0.02315 -0.537886,0.122353 -1.406541,0.802609 -1.275911,1.00908 0.13063,0.206469 1.32203,1.667172 1.291296,2.431872 -0.03074,0.764699 -0.169465,1.850526 -0.384619,2.248171 -0.215153,0.397642 0.476813,0.474293 0.845649,0.458997 0.368835,-0.01529 1.444297,-0.13757 1.136934,-0.596388 -0.307364,-0.458821 -0.52222,-1.529773 -0.199488,-1.74389 0.322731,-0.214117 0.691569,-0.443338 0.476415,-0.749219 -0.215154,-0.30588 -0.414927,-0.611974 -0.461032,-0.902561 -0.04611,-0.290586 0.87574,-1.391639 0.722059,-1.636342 -0.13447,-0.214115 -1.268898,-0.545385 -1.910788,-0.542876 z M 27.766177,-4.5933715 c -0.220693,0.00833 -0.437795,0.045849 -0.648212,0.1198955 -0.371917,0.1308772 -1.537083,0.7804963 -0.722571,0.933436 0.814511,0.1529401 1.490854,0.7181792 2.505153,1.0852351 1.014299,0.3670561 3.281398,1.3182181 3.787201,0.9548398 0.636586,-0.4573359 -1.294667,-1.7018841 -2.096927,-2.1476206 -0.844447,-0.4691761 -1.868306,-0.981849 -2.824644,-0.9457858 z m 0.561031,2.7426757 c -0.06355,0.00118 -0.123833,0.00466 -0.18154,0.010291 -0.46167,0.045106 -0.551303,0.88440843 -0.09025,0.86911442 0.461044,-0.0152942 1.306022,0.21463997 2.120535,0.55110794 0.81451,0.33646798 1.552522,0.64224105 1.73694,0.42812498 0.184416,-0.21411601 -0.107552,-0.65740579 -1.398476,-1.23857794 -1.12956,-0.5085253 -1.742396,-0.6283514 -2.187203,-0.6200604 z m -5.170281,4.4769035 c -1.293153,0.021632 -2.574816,0.2698367 -4.183119,1.3188512 -1.608304,1.0490147 -2.254644,1.6950123 -2.650797,2.597566 -1.228683,2.7993036 -0.059,3.5201141 1.524763,0.6581392 0.353921,-0.6395628 0.582782,-1.1358929 2.028094,-2.1308479 1.445285,-0.9949288 3.292342,-1.7624135 3.292342,-1.7624135 0,0 1.281889,-0.7029276 -0.01128,-0.681295 z M -39.232432,27.646305 c -0.406323,-0.0054 -0.831474,0.01647 -1.175909,0.03809 -0.624284,0.280808 -0.602279,1.058008 -0.06411,1.144411 0.538178,0.0864 1.678802,0.02158 2.281563,-0.0216 0.602755,-0.04321 0.559716,-0.86406 0.02154,-1.036864 -0.26909,-0.0864 -0.656764,-0.118613 -1.06309,-0.124013 z M -57.414564,-76.441093 c 0.473598,-0.129604 1.646829,-0.03241 1.894389,0.054 0.247563,0.0864 0.312145,0.45361 -0.150689,0.572413 -0.462835,0.118802 -1.270102,0.183604 -1.700645,0.0648 -0.430544,-0.118802 -0.312144,-0.572413 -0.04306,-0.691215 z m -23.916662,-48.179917 c 0.516652,-0.2592 0.904143,-0.2808 1.183995,-0.0216 0.279853,0.2592 0.387488,0.88562 -0.129164,0.99361 -0.516651,0.10801 -0.495124,0.0864 -0.90414,-0.23761 -0.409016,-0.324 -0.387488,-0.34559 -0.150691,-0.7344 z m -49.248434,22.63963 c 0.37672,0.486 -0.13991,1.14481 -0.23679,1.68483 -0.0969,0.540018 -0.37674,1.231234 -0.0431,1.144832 0.33366,-0.08644 0.81802,-0.16201 1.01175,0.108 0.19375,0.27001 0.1507,0.91802 -0.29061,0.961222 -0.4413,0.0432 -1.78674,0.129602 -2.10967,-0.09721 -0.32291,-0.226799 -0.74269,-0.71281 -0.50588,-1.263619 0.23681,-0.55081 0.97949,-1.285225 0.86109,-1.609245 -0.11841,-0.32401 -0.72116,-0.30241 -0.67812,-0.50761 0.0431,-0.2052 0.24416,-0.4494 0.46285,-0.54002 0.47233,-0.19569 1.15173,-0.3672 1.52845,0.11882 z m 1.89439,1.987243 c 0.29062,-0.08637 0.99024,-0.259213 1.28087,-0.172813 0.29062,0.0864 0.46283,0.44282 0.0538,0.561624 -0.40903,0.118793 -1.03331,0.183599 -1.22706,0.129601 -0.19373,-0.05399 -0.32291,-0.378016 -0.10763,-0.518412 z M 19.206225,7.3495624 c 0.60276,-0.6696155 1.679116,-1.2528291 2.432568,-1.5984371 0.753449,-0.3456081 1.140938,-0.043201 0.21527,0.6696156 -0.925667,0.7128166 -1.722172,1.1448267 -2.088133,1.5552363 -0.365961,0.4104097 -1.033304,0.1080025 -0.559705,-0.6264148 z"
       sodipodi:nodetypes="scssssscssssssscscsscccsscssssssssssssssssssscsssscssssssssssssssssssssssssssssssssssssssssssssssssssssssssscscsssscsscssscsssssssssssssasssssssssssssssssssssssssssssscsssssscsssssscsssscsssssssssssssssssssssssssssssssssscssasscsscsscssssssscssscsssssssssssssssssssssssssssssssssssssssssssssssssscsscssssssssssscsssssssssssssassssssccsssccsssc" /></g></svg>
